<?xml version="1.0"?>
<svg xmlns="http://www.w3.org/2000/svg" xmlns:xlink="http://www.w3.org/1999/xlink" width="512" height="512" viewBox="0 0 128 128"><defs><linearGradient id="a" x1="109.234" y1="109.234" x2="18.766" y2="18.766" gradientUnits="userSpaceOnUse"><stop offset="0" stop-color="#a260e5"/><stop offset="1" stop-color="#d85134"/></linearGradient></defs><path d="M60.5,34.577a1.75,1.75,0,1,1,0-3.5h6a1.75,1.75,0,1,1,0,3.5Zm33.417,2.25a5.757,5.757,0,0,0-5.75-5.75H78.125a1.75,1.75,0,0,0,0,3.5H88.167a2.25,2.25,0,0,1,0,4.5H73.1a1.75,1.75,0,0,0-1.394,2.809,18.17,18.17,0,0,1,3.4,7.448,1.75,1.75,0,0,0,1.715,1.4h11.35a2.25,2.25,0,0,1,0,4.5H76.817a1.748,1.748,0,0,0-1.714,1.4A18.463,18.463,0,0,1,57.059,71.4H49.491a1.75,1.75,0,0,0-1.237,2.988l25.2,25.2a2.25,2.25,0,0,1,0,3.183,2.3,2.3,0,0,1-3.181,0L38.243,70.74A2.251,2.251,0,0,1,39.834,66.9H57.059a13.93,13.93,0,0,0,13.123-9.333,1.752,1.752,0,0,0-1.653-2.328H39.834a2.25,2.25,0,0,1,0-4.5H68.529a1.751,1.751,0,0,0,1.653-2.327,13.929,13.929,0,0,0-13.123-9.334H39.834a2.25,2.25,0,0,1,0-4.5h9.041a1.75,1.75,0,1,0,0-3.5H39.834a5.75,5.75,0,0,0,0,11.5H57.059a10.412,10.412,0,0,1,8.662,4.661H39.834a5.75,5.75,0,0,0,0,11.5H65.721A10.412,10.412,0,0,1,57.059,63.4H39.834a5.749,5.749,0,0,0-4.065,9.816L67.8,105.248a5.75,5.75,0,0,0,8.131-8.133L53.716,74.9h3.343A21.979,21.979,0,0,0,78.2,58.738h9.967a5.75,5.75,0,0,0,0-11.5H78.2a21.319,21.319,0,0,0-1.882-4.661H88.167A5.756,5.756,0,0,0,93.917,36.827ZM128,64A64,64,0,1,1,64,0,64.072,64.072,0,0,1,128,64Zm-3.5,0A60.5,60.5,0,1,0,64,124.5,60.569,60.569,0,0,0,124.5,64ZM64,10a54,54,0,1,0,37.251,93.061,1.75,1.75,0,1,0-2.416-2.532,50.412,50.412,0,1,1,9.518-12.4,1.75,1.75,0,0,0,3.072,1.678A53.987,53.987,0,0,0,64,10Z" fill="url(#a)"/></svg>
